<?xml version="1.0" standalone="no"?>
<!DOCTYPE svg PUBLIC "-//W3C//DTD SVG 20010904//EN"
 "http://www.w3.org/TR/2001/REC-SVG-20010904/DTD/svg10.dtd">
<svg version="1.0" xmlns="http://www.w3.org/2000/svg"
 width="96.000000pt" height="96.000000pt" viewBox="0 0 96.000000 96.000000"
 preserveAspectRatio="xMidYMid meet">
<metadata>
Created by potrace 1.14, written by Peter Selinger 2001-2017
</metadata>
<g transform="translate(0.000000,96.000000) scale(0.100000,-0.100000)"
fill="#000000" stroke="none">
<path d="M727 814 c-4 -4 -7 -40 -7 -81 l0 -73 -79 0 c-79 0 -80 0 -83 28 -3
27 -4 27 -78 27 l-75 0 -3 -77 -3 -78 -79 0 -79 0 -3 38 -3 37 -75 0 -75 0 -3
-247 -2 -248 400 0 400 0 -2 337 -3 338 -70 3 c-39 1 -74 0 -78 -4z"/>
</g>
</svg>
